<svg version="1" xmlns="http://www.w3.org/2000/svg" viewBox="0 0 512 512"><circle cx="256" cy="256" r="256" fill="#4e598f"/><path d="M512 242L391 121c-2 1-7-2-9-1-52 8-102 0-152 14-24 6-26 36-34 55-12 34-11 72-26 105-11 22-35 36-43 62-3 11-3 24-6 35l121 121h14a256 256 0 0 0 256-270z" fill="#364270"/><g fill="#fff"><path d="M363 109H149c-22 0-40 18-40 40v214c0 22 18 40 40 40h106V298h-27c-4 0-7-3-7-7v-33c0-4 3-7 6-7h28v-32c0-38 23-59 56-59h28c4 0 7 3 7 7v28c0 4-3 6-7 6h-17c-18 0-22 9-22 22v28h41c3 0 6 4 6 7l-4 34c0 3-3 6-6 6h-37v105h63c22 0 40-18 40-40V149c0-22-18-40-40-40z"/><path d="M255 403V298h-1v105z"/></g><path d="M363 109H254v142h1v-32c0-38 23-59 56-59h28c4 0 7 3 7 7v28c0 4-3 6-7 6h-17c-18 0-22 9-22 22v28h41c3 0 6 4 6 7l-4 34c0 3-3 6-6 6h-37v105h63c22 0 40-18 40-40V149c0-22-18-40-40-40z" fill="#d1d1d1"/></svg>