<svg version="1" xmlns="http://www.w3.org/2000/svg" viewBox="0 0 512 512"><circle cx="256" cy="256" r="256" fill="#273b7a"/><path d="M308 507c100-21 178-99 199-198L375 176 226 277l18 18-107 40 171 172z" fill="#121149"/><linearGradient id="a" gradientUnits="userSpaceOnUse" x1="55" y1="424" x2="165" y2="424" gradientTransform="matrix(1.7239 0 0 -1.7239 35 987)"><stop offset="0" stop-color="#f3f1e8"/><stop offset="1" stop-color="#e3e0d0"/></linearGradient><path d="M359 170H153c-12 0-22 10-22 22v128c0 12 10 22 22 22h206c12 0 22-10 22-22V192c0-12-10-22-22-22z" fill="url(#a)"/><g fill="#b5b4b0"><path d="M255 290l-93 50v2l94-50zM360 191l-59 46-45 55 91 50h12c8 0 15-4 19-11l-8-51-10-89z"/></g><path d="M256 292l125-97v-3c0-12-10-22-22-22h-5l-95 80-98-80h-8c-12 0-22 10-22 22v128c0 12 10 22 22 22h9V217l94 75z" fill="#dd4b40"/><path d="M381 320V195l-34 26v121h12c12 0 22-10 22-22z" fill="#a43026"/></svg>