<svg version="1" xmlns="http://www.w3.org/2000/svg" viewBox="0 0 512 512"><circle cx="256" cy="256" r="256" fill="#6c27b3"/><path d="M375 133c-31 4-63 4-95 1-45-4-110-25-134 17-39 66-20 151-11 226l135 135c130-7 235-112 242-242L375 133z" fill="#501a96"/><g fill="#fff"><path d="M315 109H197c-48 0-88 40-88 88v118c0 48 40 88 88 88h118c48 0 88-40 88-88V197c0-48-40-88-88-88zm58 206c0 32-26 58-58 58H197c-32 0-58-26-58-58V197c0-32 26-58 58-58h118c32 0 58 26 58 58v118z"/><path d="M256 180a76 76 0 1 0 0 152 76 76 0 0 0 0-152zm0 122a46 46 0 1 1 0-92 46 46 0 0 1 0 92z"/></g><g fill="#d1d1d1"><path d="M350 181a18 18 0 1 1-36 0 18 18 0 0 1 36 0z"/><path d="M315 109h-60v30h60c32 0 58 26 58 58v118c0 32-26 58-58 58h-60v30h60c48 0 88-40 88-88V197c0-48-40-88-88-88z"/><path d="M256 180h-1v30h1a46 46 0 1 1 0 92h-1v30h1a76 76 0 0 0 0-152z"/></g></svg>