<svg version="1" xmlns="http://www.w3.org/2000/svg" viewBox="0 0 512 512"><circle cx="256" cy="256" r="256" fill="#7aa5da"/><path d="M512 250L398 137 213 362l133 134a256 256 0 0 0 166-246z" fill="#5786b5"/><path d="M384 134c10-4 20 4 18 15l-46 219c-2 10-14 15-22 9l-69-51-35 36c-7 6-17 4-20-5l-25-80-69-21c-8-2-9-15 0-18l268-104zm-34 48c3-3 0-7-4-5l-147 91c-2 2-4 5-3 8l20 88h3l4-68 3-4 124-110z" fill="#fff"/><path d="M346 177c4-2 7 2 4 5L226 292l-3 4-4 68h-3l-20-88c-1-3 1-6 3-8l147-91z" fill="#9ec2e5"/><path d="M217 365c-3-1-6-4-7-8l-25-80-69-21c-8-2-9-15 0-18l268-104a14 14 0 0 1 14 2L216 285v6h-1l1 41v32l1 1z" fill="#fff"/><g fill="#d1d1d1"><path d="M403 146l-1 3-46 219c-2 10-14 15-22 9l-69-51-49-35v-6l182-149a14 14 0 0 1 3 4v1h1v1a14 14 0 0 1 1 4z"/><path d="M265 326l-35 36a14 14 0 0 1-2 1l-2 2h-1a12 12 0 0 1-6 0 27 27 0 0 1-2 0l-1-33v-41l49 35z"/></g><g fill="#dadde0"><path d="M229 363h-1 1zM228 363zM226 365zM220 365z"/></g><g fill="#fff"><path d="M221 365zM220 365z"/></g><g fill="#dadde0"><path d="M220 365zM218 365h1-1z"/></g><g fill="#fff"><path d="M218 365h1-1zM218 365h-1 1z"/></g><path d="M218 365h-1 1z" fill="#dadde0"/><path d="M216 332l1 33-1-1v-32z" fill="#d1d1d1"/><path fill="#dadde0" d="M216 291v41l-1-41z"/><path d="M350 182L226 292l-3 4-4 68h-3l-20-88c-1-3 1-6 3-8l147-91c4-2 7 2 4 5z" fill="#adbcc9"/></svg>