<svg version="1" xmlns="http://www.w3.org/2000/svg" viewBox="0 0 512 512"><circle cx="256" cy="256" r="256" fill="#6f3faa"/><path d="M367 140c-62-15-125-32-189-10-41 16-41 60-39 98 0 11-12 25-7 37 10 34 19 69 55 86 5 3 0 10 3 15-1 0-5 2-5 4 0 8 4 21 2 29l110 110a256 256 0 0 0 213-225L367 140z" fill="#512d84"/><g fill="#fff"><path d="M391 180c-6-28-37-58-66-64-46-9-92-9-138 0-29 6-59 36-66 64-9 39-9 78 0 116v1c6 26 35 54 62 62v31c0 11 14 17 21 9l32-33a365 365 0 0 0 89-6c29-6 60-36 66-63v-1c9-38 9-77 0-116zm-24 111c-5 18-28 40-47 44a342 342 0 0 1-75 7l-22 23-25 25c-2 2-5 1-5-2v-51l-1-2c-19-4-42-26-47-44-7-35-7-71 0-105 5-19 28-41 47-45 42-8 86-8 128 0 19 4 42 26 47 45 7 34 7 70 0 105z"/><path d="M296 314l-8-2c-26-11-50-25-69-47-11-12-20-26-27-40l-9-22c-3-6 1-13 5-18 4-4 9-8 15-11 4-2 8 0 11 3 7 8 13 16 18 25 3 6 2 12-3 16l-4 3-3 3-1 8c7 18 19 33 38 41l9 2c6-1 8-7 12-10 4-4 9-4 13-1l13 9 12 9c4 3 5 7 3 11-4 8-9 15-17 19l-8 2c-2-1 3 0 0 0zM256 165c34 1 63 24 69 58l1 18c1 2-1 4-3 4-3 1-4-2-5-4l-1-15c-3-25-24-47-49-51l-12-1c-2-1-6-1-6-4-1-2 2-4 4-5h2c34 1-1 0 0 0z"/><path d="M308 233v2c-1 4-6 4-7 1l-1-4c0-7-1-14-5-20a39 39 0 0 0-29-20h-6c-3-1-4-2-4-5 0-2 2-3 4-3 8 0 16 2 23 6 14 7 22 19 25 35v8s0-2 0 0z"/><path d="M287 232c-3 0-5-1-5-4l-1-5c0-4-2-7-5-9l-5-3-6-1c-3 0-4-2-4-4 1-2 3-4 5-3 13 1 23 7 24 23v3c0 2-2 3-3 3-3 0 1 0 0 0z"/></g><path d="M391 180c-3-16-15-32-29-44l-19 17c11 9 21 22 24 33 7 34 7 70 0 105-5 18-28 40-47 44a342 342 0 0 1-75 7l-22 23-25 25c-2 2-5 1-5-2v-51l-1-2c-11-2-23-10-32-20l-19 17c12 13 27 23 42 27v31c0 11 14 17 21 9l32-33a365 365 0 0 0 89-6c29-6 60-36 66-63v-1c9-38 9-77 0-116z" fill="#d1d1d1"/><path d="M296 314c3 0-2-1 0 0z" fill="#fff"/><path d="M318 282l-12-9-13-9c-4-3-9-3-13 1-4 3-6 9-12 10l-9-2c-12-5-21-13-27-22l-15 13 2 1c19 22 43 36 69 47l8 2c-2-1 3 0 0 0l8-2c8-4 13-11 17-19 2-4 1-8-3-11z" fill="#d1d1d1"/><g fill="#fff"><path d="M256 165zM256 165c2 0 33 1 0 0z"/></g><g fill="#d1d1d1"><path d="M305 186l-6 5c10 9 16 22 18 35l1 15c1 2 2 5 5 4 2 0 4-2 3-4l-1-18c-3-15-10-27-20-37zM308 225c-2-12-7-21-15-28l-6 5a39 39 0 0 1 13 30l1 4c1 3 6 3 7-1v-2s0-2 0 0v-6-2z"/></g><g fill="#fff"><path d="M308 233c0-2 0 0 0 0zM287 232zM287 232c-1 0-2 0 0 0zM287 232z"/></g><path d="M281 208l-6 5 1 1c3 2 5 5 5 9l1 5c0 3 2 4 5 4 1 0 3-1 3-3v-3c-1-9-4-15-9-18z" fill="#d1d1d1"/></svg>