<svg version="1" xmlns="http://www.w3.org/2000/svg" viewBox="0 0 512 512"><circle cx="256" cy="256" r="256" fill="#75b73b"/><path d="M360 152c-15-4-36-17-51-22-55-17-129-3-150 60-1 2-5 2-6 2-42 48-14 107-18 161-1 18-11 35-24 49l108 107a256 256 0 0 0 289-209L360 152z" fill="#52891d"/><g fill="#fff"><path d="M249 108a147 147 0 0 0-124 213l-15 76c-1 4 3 8 7 7l74-18a147 147 0 1 0 58-278zm88 228a114 114 0 0 1-132 22l-10-6-46 11 10-46-5-10a114 114 0 0 1 102-167 114 114 0 0 1 115 115c0 30-12 59-34 81z"/><path d="M327 287l-28-9c-4-1-8 0-11 3l-7 7c-3 3-7 4-11 3-13-6-42-31-49-43-2-4-2-9 1-12l6-8c2-3 3-7 1-11l-12-27c-2-6-11-8-16-3-8 6-17 17-19 28-2 20 7 45 39 75 37 35 67 39 87 35 11-3 20-14 25-23 4-6 1-13-6-15z"/></g><g fill="#d1d1d1"><path d="M356 148l-22 22 3 4a114 114 0 0 1 0 162 114 114 0 0 1-132 22l-10-6-46 11 1-4-40 41c1 2 4 4 7 4l74-18a147 147 0 0 0 165-238z"/><path d="M327 287l-28-9c-4-1-8 0-11 3l-7 7c-3 3-7 4-11 3-8-4-20-13-31-23l-20 20 2 2c37 35 67 39 87 35 11-3 20-14 25-23 4-6 1-13-6-15z"/></g></svg>