<?xml version="1.0" standalone="no"?>
<!DOCTYPE svg PUBLIC "-//W3C//DTD SVG 20010904//EN"
 "http://www.w3.org/TR/2001/REC-SVG-20010904/DTD/svg10.dtd">
<svg version="1.0" xmlns="http://www.w3.org/2000/svg"
 width="310.000000pt" height="310.000000pt" viewBox="0 0 310.000000 310.000000"
 preserveAspectRatio="xMidYMid meet">
<metadata>
Created by potrace 1.11, written by Peter Selinger 2001-2013
</metadata>
<g transform="translate(0.000000,310.000000) scale(0.100000,-0.100000)"
fill="#000000" stroke="none">
<path d="M2296 3091 c-3 -5 -32 -22 -63 -39 -32 -16 -80 -42 -107 -56 -27 -14
-59 -26 -70 -26 -15 0 -28 -12 -41 -37 -24 -47 -45 -73 -59 -73 -6 0 -31 18
-55 40 -24 22 -50 40 -58 40 -21 0 -114 29 -145 46 -14 8 -35 14 -45 14 -10 0
-23 4 -29 9 -5 5 -52 14 -104 21 -104 12 -422 -1 -443 -18 -7 -5 -33 -12 -58
-16 -103 -15 -249 -91 -249 -129 0 -13 5 -17 16 -13 9 3 19 6 23 6 4 0 21 11
37 25 16 14 39 25 51 25 12 0 25 5 28 10 9 14 43 12 47 -2 4 -12 51 2 111 33
10 6 44 12 75 14 31 2 66 7 77 12 25 10 140 10 220 0 61 -7 157 -36 230 -68
22 -9 53 -20 68 -24 16 -3 46 -17 68 -31 22 -13 44 -22 50 -18 6 3 23 -6 38
-20 16 -15 38 -28 50 -29 15 -1 21 -8 21 -27 0 -31 14 -55 28 -46 12 7 21 -5
27 -33 6 -31 65 -199 100 -286 47 -116 105 -247 130 -295 7 -14 31 -59 53
-100 51 -98 131 -240 148 -265 24 -34 15 -40 -16 -10 -16 16 -30 33 -30 38 0
4 -11 23 -24 40 -43 58 -190 328 -223 412 -37 95 -77 194 -89 222 -8 17 -14
37 -14 45 0 8 -3 18 -7 22 -4 4 -9 19 -11 34 -2 14 -8 32 -13 39 -6 7 -8 21
-4 32 3 10 1 22 -5 26 -5 3 -10 19 -10 36 0 16 -4 29 -10 29 -5 0 -10 -7 -10
-15 0 -25 22 -120 30 -130 5 -5 11 -28 15 -50 12 -64 52 -165 128 -325 14 -30
29 -65 32 -77 4 -13 11 -23 16 -23 5 0 9 -7 9 -15 0 -8 21 -54 48 -101 26 -47
53 -97 61 -112 8 -15 34 -53 57 -85 24 -31 44 -61 44 -66 0 -5 7 -14 15 -21
22 -18 18 -29 -7 -23 l-23 6 23 -26 c19 -20 22 -29 13 -45 -13 -24 -5 -33 24
-26 12 3 26 -1 34 -9 9 -12 7 -18 -12 -34 -13 -10 -27 -31 -31 -46 -3 -15 -15
-42 -26 -60 l-20 -32 6 33 c5 24 3 32 -8 32 -19 0 -38 -20 -38 -41 0 -9 -11
-33 -25 -53 -14 -20 -25 -47 -25 -60 0 -13 -7 -29 -15 -36 -8 -7 -15 -16 -15
-21 0 -15 -104 -161 -122 -170 -10 -5 -18 -18 -18 -27 0 -25 -118 -132 -162
-147 -42 -14 -47 -7 -20 33 32 49 42 67 48 82 3 8 10 25 15 38 57 140 56 178
-1 69 -18 -34 -44 -75 -57 -92 -72 -92 -86 -105 -113 -105 -52 0 -219 -49
-304 -89 -47 -22 -88 -36 -91 -31 -3 4 5 30 17 56 20 43 23 66 23 194 0 206
-17 254 -143 420 -42 56 -55 104 -41 155 13 48 59 95 92 95 37 0 87 -46 87
-79 0 -56 -64 -81 -85 -33 -11 24 -25 29 -25 9 0 -42 90 -65 110 -28 19 36 12
79 -19 113 -24 27 -36 33 -70 33 -47 0 -94 -38 -113 -92 -15 -40 -25 -42 -39
-5 -37 97 -31 222 16 329 32 71 49 91 100 114 52 24 87 24 134 0 51 -26 71
-60 71 -118 0 -39 -6 -56 -30 -85 -39 -47 -71 -55 -123 -29 -49 24 -57 21 -25
-9 19 -18 32 -21 71 -17 83 7 148 92 132 173 -13 73 -103 135 -175 121 -14 -3
-32 -2 -39 3 -34 20 171 130 280 150 216 39 419 -125 436 -353 6 -83 -8 -140
-33 -130 -7 3 -12 14 -11 26 3 35 -30 32 -69 -7 -20 -20 -34 -41 -32 -48 7
-20 64 -21 92 -2 52 33 19 -44 -40 -96 -81 -70 -165 -78 -246 -22 -69 47 -92
91 -85 159 10 92 63 141 140 126 28 -5 67 -49 67 -75 0 -19 -42 -58 -63 -58
-9 0 -19 11 -23 25 -8 32 -1 40 24 26 15 -8 23 -7 32 4 31 37 -23 61 -68 29
-45 -32 -16 -104 43 -104 60 0 89 95 43 137 -60 54 -117 54 -173 -2 -118 -119
-10 -325 169 -325 66 0 143 36 184 86 35 42 67 131 77 209 18 155 -114 364
-257 406 -56 16 -229 13 -297 -7 -34 -9 -64 -14 -68 -10 -3 3 -1 17 5 31 32
70 2 180 -61 226 -67 49 -144 32 -200 -43 -26 -35 -27 -104 -3 -141 24 -35 39
-35 20 1 -25 48 -18 107 17 147 27 30 37 35 76 35 58 0 78 -12 114 -68 33 -53
38 -114 14 -166 -9 -18 -58 -72 -110 -120 -82 -75 -100 -99 -137 -173 -42 -85
-43 -88 -43 -192 0 -77 5 -122 19 -164 10 -31 17 -60 14 -62 -3 -3 -25 2 -49
11 -53 19 -192 21 -246 4 -43 -14 -143 -71 -143 -82 0 -3 19 4 43 17 66 37
161 58 238 53 230 -17 420 -303 380 -570 -15 -96 -42 -178 -81 -241 -17 -27
-30 -57 -30 -67 0 -10 -6 -20 -12 -23 -19 -7 54 -19 88 -15 39 4 37 22 -4 26
-35 4 -35 22 1 22 12 -1 63 20 112 44 127 64 305 140 312 133 7 -8 -105 -115
-139 -132 -15 -7 -41 -16 -58 -20 -16 -4 -32 -11 -35 -16 -4 -5 -17 -9 -30 -9
-13 0 -27 -5 -31 -11 -4 -7 0 -9 12 -6 11 3 37 8 59 12 22 4 46 11 53 17 8 7
12 7 12 -1 0 -6 -3 -11 -8 -11 -4 0 -13 -9 -20 -20 -11 -18 -10 -19 14 -10 33
13 34 13 34 -5 0 -10 10 -15 30 -15 22 0 28 -4 24 -15 -4 -10 -2 -13 8 -10 8
3 21 -1 28 -10 7 -8 24 -15 39 -15 14 0 36 -3 49 -6 22 -6 22 -7 5 -26 -10
-11 -27 -24 -38 -29 -11 -5 -28 -14 -37 -21 -14 -10 -24 -9 -53 5 -20 9 -51
17 -69 17 -25 0 -35 6 -44 25 -13 29 -29 31 -79 10 -42 -18 -53 -19 -53 -5 0
6 11 15 25 20 14 5 25 14 25 19 0 5 8 12 18 14 10 3 7 5 -10 6 -15 0 -47 -6
-71 -14 -24 -8 -77 -19 -118 -24 -41 -6 -89 -13 -107 -17 -41 -8 -238 24 -253
42 -10 13 39 19 204 27 37 2 67 7 67 12 0 10 -5 10 -215 20 -88 4 -167 11
-176 16 -9 5 -21 3 -27 -3 -18 -18 -14 3 4 23 11 12 13 25 8 41 -10 30 -5 60
12 73 12 8 12 18 -2 65 -9 30 -20 62 -24 71 -5 9 -11 38 -15 65 -8 54 -23 96
-98 269 -19 44 -40 105 -47 135 -12 51 -76 184 -163 338 l-36 62 37 0 c20 0
56 11 79 24 23 13 44 22 46 19 3 -2 1 -19 -4 -36 -13 -44 -3 -81 31 -117 24
-26 35 -30 78 -30 44 0 54 4 76 31 27 32 30 56 17 127 -9 48 -3 52 38 23 43
-31 77 -35 127 -16 29 11 50 27 59 45 19 38 19 110 0 137 -17 25 -71 43 -127
43 -21 0 -38 3 -38 6 0 3 13 23 30 44 57 72 63 115 23 160 -58 65 -154 47
-189 -34 -10 -23 -19 -43 -21 -45 -1 -2 -22 17 -46 42 -37 40 -49 47 -82 47
-41 0 -99 -30 -115 -60 -6 -10 -10 -35 -10 -54 0 -29 8 -43 40 -73 22 -21 40
-41 40 -45 0 -3 -20 -16 -45 -28 -51 -25 -84 -61 -92 -102 -3 -16 -9 -28 -14
-28 -15 0 -79 62 -79 76 0 8 -12 19 -27 25 -41 15 -56 53 -33 82 58 71 61 77
46 77 -9 0 -16 -4 -16 -10 0 -5 -7 -10 -15 -10 -8 0 -15 -4 -15 -10 0 -10 -39
-34 -45 -28 -8 8 55 125 79 147 14 14 26 31 26 39 0 13 81 128 146 210 45 55
10 35 -67 -38 -40 -38 -77 -70 -81 -70 -14 0 -9 15 15 40 76 83 99 111 94 116
-3 3 -13 1 -24 -5 -52 -28 -77 -29 -106 -3 -10 9 -21 12 -26 6 -95 -101 -178
-218 -223 -314 -49 -104 -59 -129 -69 -187 -6 -32 -16 -64 -22 -72 -16 -19
-16 -419 0 -452 6 -13 19 -55 28 -93 9 -38 25 -86 36 -108 11 -21 32 -73 47
-116 26 -72 55 -128 137 -263 18 -30 63 -87 99 -126 36 -39 66 -75 66 -80 0
-11 41 -51 68 -67 11 -6 44 -31 75 -56 31 -25 73 -54 94 -65 21 -10 50 -27 65
-38 41 -27 186 -75 270 -88 147 -24 654 -14 783 16 206 47 449 225 635 465 28
36 55 70 60 77 6 7 10 15 10 18 0 3 15 29 33 58 50 77 106 234 124 344 5 32 6
32 59 31 36 -1 59 4 71 14 10 9 65 37 123 63 58 26 118 59 134 73 l28 27 -5
115 c-3 64 -11 129 -17 145 -7 17 -23 71 -36 120 -20 79 -80 232 -119 305 -7
14 -23 45 -34 70 -53 120 -73 160 -105 215 -19 33 -47 83 -61 110 -15 28 -33
57 -41 66 -8 8 -14 19 -14 23 0 4 -4 12 -10 19 -5 7 -36 46 -68 87 -32 41 -89
103 -126 138 -58 54 -72 62 -106 62 -21 0 -41 -4 -44 -9z m-1381 -870 c-17
-34 -11 -39 23 -15 34 24 27 -3 -13 -47 -19 -22 -35 -48 -35 -58 0 -22 35 -51
61 -51 12 0 16 -6 12 -20 -4 -14 2 -22 21 -30 34 -12 34 -33 1 -24 -25 6 -35
-9 -14 -22 7 -4 8 -9 0 -17 -7 -7 -20 -2 -43 15 -18 13 -38 28 -45 31 -16 10
-43 -20 -43 -49 0 -15 -6 -24 -15 -24 -8 0 -15 -4 -15 -10 0 -5 -6 -10 -13
-10 -8 0 -20 -11 -27 -25 -20 -38 -33 -15 -20 35 6 23 9 48 6 56 -8 21 -40 17
-62 -7 -10 -11 -27 -25 -37 -31 -16 -8 -17 -7 -7 11 14 26 -5 29 -38 5 -33
-23 -40 -9 -12 21 l23 25 -28 0 c-39 0 -22 16 41 38 37 13 51 25 59 46 8 25 6
31 -30 61 -22 19 -34 34 -27 35 17 0 15 25 -3 40 -24 20 -6 33 21 16 31 -21
37 -20 24 3 -13 24 -13 31 0 31 5 0 25 -25 45 -55 46 -73 80 -74 109 -3 17 40
36 58 36 34 0 -23 9 -20 32 10 26 33 34 24 13 -15z m-645 -229 c0 -5 -18 -17
-39 -28 -22 -10 -38 -22 -35 -25 2 -3 -3 -15 -11 -25 -9 -12 -14 -14 -15 -6 0
21 28 70 47 81 22 13 53 14 53 3z m115 -103 c60 -34 144 -113 165 -154 8 -17
34 -61 58 -98 28 -44 41 -74 37 -86 -3 -11 -1 -22 4 -25 28 -17 161 -334 161
-382 0 -13 7 -41 15 -61 10 -24 16 -74 17 -142 2 -137 -10 -161 -83 -161 -40
0 -55 5 -84 31 -32 29 -45 51 -27 48 26 -4 30 3 12 21 -11 11 -20 27 -20 36 0
8 -5 25 -12 37 -6 12 -13 39 -15 61 -5 61 -52 145 -115 207 -43 42 -56 61 -51
77 3 13 -2 27 -16 38 -25 22 -27 34 -6 34 8 0 15 4 15 8 0 5 -25 64 -55 131
-30 67 -55 135 -55 151 0 16 -3 30 -7 32 -5 2 -19 23 -32 47 -33 60 -55 81
-80 74 -39 -10 -20 39 32 88 38 34 65 32 142 -12z m-308 -326 c-3 -10 -5 -4
-5 12 0 17 2 24 5 18 2 -7 2 -21 0 -30z m229 9 c6 -13 17 -29 23 -35 12 -12
15 -50 4 -60 -11 -11 -33 14 -33 39 0 13 -8 25 -19 29 -12 4 -18 14 -17 31 1
31 26 28 42 -4z m162 -377 c-3 -3 -9 2 -12 12 -6 14 -5 15 5 6 7 -7 10 -15 7
-18z m1922 -54 c-6 -12 -17 -21 -25 -21 -19 0 -19 2 8 47 19 33 22 35 25 16 2
-12 -2 -31 -8 -42z m-50 -46 c0 -8 -5 -15 -11 -15 -6 0 -9 -6 -6 -12 2 -7 15
-13 28 -13 32 0 41 -44 10 -52 -11 -3 -18 -10 -15 -17 5 -14 -39 -66 -55 -66
-6 0 -16 -9 -23 -20 -7 -11 -17 -20 -21 -20 -5 0 -18 -12 -29 -26 -14 -18 -28
-24 -47 -22 -21 2 -27 -2 -29 -19 -3 -17 -10 -23 -28 -23 -14 0 -24 -6 -24
-14 0 -8 -4 -16 -8 -18 -5 -2 -15 -16 -23 -32 -8 -16 -19 -31 -25 -33 -16 -5
-27 29 -13 38 7 4 10 19 6 38 -5 23 -3 31 8 31 8 0 18 8 24 17 5 10 15 18 23
19 7 0 20 2 28 3 15 1 40 44 40 66 0 7 9 20 21 31 17 16 22 16 30 4 8 -12 9
-10 4 6 -7 26 32 77 73 96 15 8 27 22 28 33 2 32 3 35 19 35 8 0 15 -7 15 -15z
m-1460 -235 c0 -11 -2 -20 -4 -20 -2 0 -6 9 -9 20 -3 11 -1 20 4 20 5 0 9 -9
9 -20z m1097 -7 c-9 -9 -19 -14 -23 -11 -10 10 6 28 24 28 15 0 15 -1 -1 -17z
m-1103 -91 c-8 -72 -23 -91 -59 -72 -29 16 -33 45 -6 59 10 6 26 26 35 46 24
50 37 35 30 -33z m1056 61 c0 -5 -12 -16 -25 -26 -29 -21 -36 -2 -7 19 19 15
32 18 32 7z m46 -98 c-3 -8 -9 -22 -13 -32 -4 -10 -3 -14 5 -9 11 7 28 -11 18
-21 -3 -3 -16 -7 -28 -9 -13 -1 -38 -6 -55 -10 -27 -5 -33 -3 -33 11 0 9 8 19
19 22 10 2 28 18 40 34 23 30 58 41 47 14z m-156 -4 c0 -12 -26 -32 -33 -25
-9 10 4 34 19 34 8 0 14 -4 14 -9z"/>
<path d="M742 2087 c-42 -44 -19 -97 42 -97 41 0 76 35 76 77 0 34 -13 43 -64
43 -21 0 -40 -8 -54 -23z m68 -21 c0 -7 -7 -19 -15 -26 -19 -16 -41 1 -32 24
8 20 47 21 47 2z"/>
<path d="M296 1807 c10 -33 26 -49 37 -38 11 11 -6 46 -28 55 -13 5 -15 1 -9
-17z"/>
<path d="M495 1681 c-6 -10 24 -45 32 -37 7 7 -7 46 -17 46 -5 0 -11 -4 -15
-9z"/>
<path d="M540 1610 c0 -5 5 -10 10 -10 6 0 10 5 10 10 0 6 -4 10 -10 10 -5 0
-10 -4 -10 -10z"/>
<path d="M774 1059 c2 -28 18 -48 40 -49 8 0 7 6 -16 52 -17 37 -27 35 -24 -3z"/>
<path d="M2300 1010 c0 -5 5 -10 10 -10 6 0 10 5 10 10 0 6 -4 10 -10 10 -5 0
-10 -4 -10 -10z"/>
<path d="M1596 2694 c-3 -9 -6 -27 -6 -40 0 -19 -8 -28 -30 -36 -32 -11 -55
-41 -44 -59 3 -6 16 -14 29 -19 18 -7 24 -18 27 -46 2 -22 10 -41 21 -48 15
-9 23 -6 44 18 21 25 28 28 44 18 55 -35 104 5 72 58 -16 29 -16 30 5 53 12
13 22 29 22 35 0 20 -46 43 -73 37 -20 -5 -29 -1 -42 19 -19 29 -59 35 -69 10z
m60 -49 c7 -27 16 -30 43 -16 10 6 23 6 32 0 12 -8 10 -12 -9 -27 -20 -16 -23
-24 -16 -57 6 -35 5 -38 -12 -30 -20 8 -34 9 -69 3 -16 -2 -19 2 -18 20 2 17
-2 22 -22 22 -39 0 -39 19 -1 35 30 13 36 20 36 45 0 37 27 41 36 5z"/>
<path d="M1624 2599 c-9 -16 20 -41 39 -33 21 8 22 30 1 38 -23 9 -32 7 -40
-5z"/>
<path d="M1782 2464 c-17 -14 -37 -35 -43 -46 -11 -20 -9 -21 22 -14 l33 6
-28 -29 c-32 -33 -29 -47 13 -56 38 -8 88 14 140 60 52 48 53 68 1 89 -58 23
-100 20 -138 -10z"/>
<path d="M2213 1854 c-21 -9 -15 -26 19 -61 33 -34 29 -44 -6 -18 -56 42 -49
-24 7 -71 28 -23 38 -26 94 -22 34 2 65 7 69 11 22 21 -95 155 -141 162 -16 2
-36 2 -42 -1z"/>
<path d="M2133 1685 c-31 -30 -29 -61 6 -96 50 -49 71 -36 71 45 0 29 -6 48
-18 59 -23 21 -32 20 -59 -8z"/>
<path d="M1566 1477 c-36 -38 -58 -70 -62 -92 -11 -61 16 -97 46 -60 18 21 32
19 25 -5 -10 -32 17 -24 56 16 28 29 34 42 33 77 0 23 -10 60 -22 82 l-21 40
-55 -58z"/>
<path d="M1208 1328 c-21 -6 -38 -14 -38 -20 0 -19 92 -128 128 -153 39 -26
81 -32 113 -15 27 15 24 27 -16 66 -36 35 -27 47 14 18 36 -26 48 -3 22 40
-45 73 -115 93 -223 64z"/>
<path d="M1577 1242 c-21 -23 -22 -42 -3 -42 7 0 16 -9 19 -20 8 -31 43 -24
85 15 36 34 36 36 18 50 -28 21 -99 19 -119 -3z"/>
<path d="M2116 1031 c-4 -7 -5 -15 -2 -18 9 -9 19 4 14 18 -4 11 -6 11 -12 0z"/>
<path d="M2063 1013 c-22 -8 -14 -23 12 -23 16 0 25 6 25 15 0 15 -14 18 -37
8z"/>
</g>
</svg>
